<?xml version="1.0" encoding="iso-8859-1"?>
<!DOCTYPE svg PUBLIC "-//W3C//DTD SVG 1.1//EN" "http://www.w3.org/Graphics/SVG/1.1/DTD/svg11.dtd">
<svg 
 version="1.1" xmlns="http://www.w3.org/2000/svg" xmlns:xlink="http://www.w3.org/1999/xlink" x="0px" y="0px" width="512px"
	 height="512px" viewBox="0 0 512 512" enable-background="new 0 0 512 512" xml:space="preserve"
><g id="e6c6b53d3c8160b22dad35a0f70b3866"><g></g><g fill="#e61515"><path display="inline" d="M195.14,405.241l121.72,41.373v-27.741l-27.076-8.01v-40.421l27.076-8.084v-27.903l-121.72,40.421
		V405.241z M216.873,390.42c4.242-0.37,7.889-1.015,10.941-1.912l40.92-12.201v29.084l-41.249-12.358
		c-3.51-1.057-7.053-1.714-10.612-1.979V390.42z M217.467,284.195h99.393v25.69h-99.393v32.254H195.14v-90.362h22.327V284.195z
		 M468.917,21.792H43.083C19.663,21.792,0.5,40.954,0.5,64.375v106.459c0,23.421,19.163,42.583,42.583,42.583h29.134l-24.676,234.44
		c-2.452,23.292,14.704,42.351,38.125,42.351h340.667c23.421,0,40.579-19.059,38.126-42.351l-24.677-234.44h29.135
		c23.421,0,42.583-19.162,42.583-42.583V64.375C511.5,40.954,492.338,21.792,468.917,21.792z M432.945,457.821
		c-1.518,1.688-3.805,2.579-6.612,2.579H85.667c-2.807,0-5.094-0.891-6.61-2.574c-1.518-1.688-2.165-4.055-1.871-6.85l33.667-319.84
		c0.848-8.052,9.302-15.661,17.397-15.661h66.89v28.026l71.98,23.225c4.978,1.587,10.837,3.09,17.569,4.517v0.472
		c-5.83,0.851-11.627,2.202-17.399,4.045l-72.15,23.223v37.498h121.72v-23.072h-67.318c-9.045,0-19.574,0.35-31.572,1.031v-0.709
		c9.116-1.636,14.771-2.825,16.975-3.562l81.915-27.115v-20.928l-82.763-26.634c-3.277-1.059-8.658-2.241-16.127-3.563v-0.633
		c9.515,0.633,18.202,0.944,26.058,0.944h72.833v-16.765h66.89c8.093,0,16.551,7.612,17.396,15.661l33.667,319.844
		C435.107,453.771,434.463,456.138,432.945,457.821z"></path></g></g></svg>